<?xml version="1.0" encoding="UTF-8"?>
<svg id="Layer_1" xmlns="http://www.w3.org/2000/svg" version="1.1" viewBox="0 0 20.71 15.95">
  <!-- Generator: Adobe Illustrator 30.0.0, SVG Export Plug-In . SVG Version: 2.1.1 Build 123)  -->
  <defs>
    <style>
      .st0 {
        fill: #165886;
      }

      .st1 {
        fill: #ef7a22;
      }

      .st2 {
        fill: none;
        stroke: #165886;
        stroke-miterlimit: 10;
        stroke-width: .25px;
      }

      .st3 {
        fill: #175a87;
      }

      .st4 {
        fill: #56b74b;
      }
    </style>
  </defs>
  <g>
    <path class="st0" d="M14.68,5.95c-.37.1-.74.21-1.12.3l-1.18-2.43c-.14-.23-.27-.23-.41.01l-1.51,3c-.2.02-.4.07-.61.07l.3.56c-.56,1.05-1.08,2.12-1.62,3.18-.22.32-.94.56-1.32.55-.67-.02-1.78-.38-2.37-.7-2.89-1.56-3.03-5.48-.61-7.52,1.59-1.34,3.39-.93,5.31-.97.41.06.45.9.05.95-.29.04-.64-.01-.94-.02-1.26-.02-2.24-.11-3.39.52-2.97,1.63-1.95,6.18,1.32,6.63.71.1,1.08.06,1.45-.59l3.67-7.19c.32-.51.83-.49,1.17-.03l1.8,3.67Z"/>
    <path class="st1" d="M14.68,5.95c.87-.23,1.74-.46,2.6-.7h.12c-1.96,1.01-4.08,1.67-6.22,2.21l.61,1.21-.03.04-.73.31c-.27-.54-.58-1.05-.87-1.58l-.3-.56c.2,0,.41-.04.61-.07.87-.11,1.72-.27,2.58-.46.06-.01.13-.04.18-.05.11-.02.22-.04.33-.07.38-.09.75-.2,1.12-.3Z"/>
    <path class="st0" d="M15.3,7.22l1.87,3.84c-.38.25-.86.2-1.26.04l-1.67-3.43c.35-.15.71-.29,1.05-.44Z"/>
    <path class="st4" d="M13.8,7.86s-.04,0-.07,0c-.23.09-.45.18-.67.28l.63,1.15-.69.39-1.1-1.94c2.25-.71,4.5-1.41,6.71-2.24l-.23.15c-1.01.56-2.04,1.09-3.09,1.56-.34.15-.7.3-1.05.44-.09.04-.19.1-.28.13-.05.02-.11.04-.16.07Z"/>
    <path class="st3" d="M6.22,11.81c.32.44.68.87,1.02,1.3v-1.3h.41v2.1s-.25.04-.28,0l-1.08-1.39v1.42h-.41v-2.12h.35Z"/>
    <path class="st3" d="M9.07,13.93v-2.12h1.03c.13,0,.41.13.51.21.69.56.36,1.91-.56,1.91h-.98ZM9.48,13.54h.57c.13,0,.33-.14.4-.24.18-.25.16-.72-.06-.94-.06-.06-.27-.17-.35-.17h-.55v1.35Z"/>
    <path class="st3" d="M16.31,13.93h-.43l-.16-.39c-.36-.02-.74,0-1.11,0-.05.02-.15.34-.2.39h-.42l.93-2.11s.03-.01.05-.02c.07,0,.29,0,.36,0,.06,0,.07.05.09.11.29.58.62,1.31.86,1.91.01.04.03.07.03.11ZM15.53,13.16l-.39-.89-.38.89h.77Z"/>
    <rect class="st0" x="3.96" y="11.79" width=".41" height="2.14"/>
    <rect class="st0" x="12.32" y="11.79" width=".41" height="2.14"/>
    <path class="st3" d="M13.97,7.79l1.69,3.44s.15.11.15.13c0,.02-.02.14-.04.15-.08.03-.26-.14-.29-.22-.52-1.13-1.14-2.22-1.65-3.35-.01-.03-.03-.05-.02-.08.05-.02.11-.05.16-.07Z"/>
    <path class="st3" d="M13.23,6.31c-.05.01-.12.04-.18.05-.35-.76-.74-1.5-1.1-2.25-.02-.07.08-.11.12-.16l1.16,2.37Z"/>
  </g>
  <rect class="st2" x=".55" y=".45" width="19.62" height="15.05" rx="1.36" ry="1.36"/>
</svg>